<svg width="98" height="87" viewBox="0 0 98 87" fill="none" xmlns="http://www.w3.org/2000/svg">
<g clip-path="url(#clip0_903_445)">
<path d="M64.8571 25.5392L89.306 29.1416C91.3307 29.4305 93.0321 30.8578 93.6786 32.8119C94.3251 34.783 93.7977 36.924 92.3345 38.3853L74.606 55.7514L78.7914 80.6619C79.1317 82.701 78.298 84.774 76.5966 85.9805C74.9123 87.1869 72.6835 87.3398 70.863 86.3713L49.0171 74.7316L27.1883 86.3713C25.3508 87.3398 23.122 87.1869 21.4376 85.9805C19.7532 84.774 18.9025 82.701 19.2598 80.6619L23.4453 55.7514L5.71338 38.3853C4.24849 36.924 3.72786 34.783 4.37099 32.8119C5.01241 30.8578 6.7087 29.4305 8.74866 29.1416L33.1772 25.5392L44.1341 3.05349C45.0359 1.18163 46.9414 -0.00665283 49.0171 -0.00665283C51.1098 -0.00665283 53.0154 1.18163 53.9171 3.05349L64.8571 25.5392Z" fill="#F2F2F2"/>
</g>
<defs>
<clipPath id="clip0_903_445">
<rect width="98" height="87" fill="white"/>
</clipPath>
</defs>
</svg>
